HIERARCHY
ROOT hip
{
  OFFSET 0 0 0
  CHANNELS 6 Xposition Yposition Zposition Zrotation Yrotation Xrotation
  JOINT abdomen
  {
    OFFSET 0 20.6881 -0.73152
    CHANNELS 3 Zrotation Xrotation Yrotation
    JOINT chest
    {
      OFFSET 0 11.7043 -0.48768
      CHANNELS 3 Zrotation Xrotation Yrotation
      JOINT neck
      {
        OFFSET 0 22.1894 -2.19456
        CHANNELS 3 Zrotation Xrotation Yrotation
        JOINT head
        {
          OFFSET -0.24384 7.07133 1.2192
          CHANNELS 3 Zrotation Xrotation Yrotation
          JOINT leftEye
          {
            OFFSET 4.14528 8.04674 8.04672
            CHANNELS 3 Zrotation Xrotation Yrotation
            End Site
            {
              OFFSET 1 0 0
            }
          }
          JOINT rightEye
          {
            OFFSET -3.6576 8.04674 8.04672
            CHANNELS 3 Zrotation Xrotation Yrotation
            End Site
            {
              OFFSET 1 0 0
            }
          }
        }
      }
      JOINT rCollar
      {
        OFFSET -2.68224 19.2634 -4.8768
        CHANNELS 3 Zrotation Xrotation Yrotation
        JOINT rShldr
        {
          OFFSET -8.77824 -1.95073 1.46304
          CHANNELS 3 Zrotation Xrotation Yrotation
          JOINT rForeArm
          {
            OFFSET -28.1742 -1.7115 0.48768
            CHANNELS 3 Zrotation Xrotation Yrotation
            JOINT rHand
            {
              OFFSET -22.5879 0.773209 7.07136
              CHANNELS 3 Zrotation Xrotation Yrotation
              JOINT rThumb1
              {
                OFFSET -1.2192 -0.487915 3.41376
                CHANNELS 3 Zrotation Xrotation Yrotation
                JOINT rThumb2
                {
                  OFFSET -3.37035 -0.52449 3.41376
                  CHANNELS 3 Zrotation Xrotation Yrotation
                  End Site
                  {
                    OFFSET -1.78271 -1.18214 1.43049
                  }
                }
              }
              JOINT rIndex1
              {
                OFFSET -7.75947 0.938293 5.60832
                CHANNELS 3 Zrotation Xrotation Yrotation
                JOINT rIndex2
                {
                  OFFSET -2.54057 -0.884171 1.56538
                  CHANNELS 3 Zrotation Xrotation Yrotation
                  End Site
                  {
                    OFFSET -1.62519 -0.234802 1.16502
                  }
                }
              }
              JOINT rMid1
              {
                OFFSET -8.24714 1.18213 3.41376
                CHANNELS 3 Zrotation Xrotation Yrotation
                JOINT rMid2
                {
                  OFFSET -3.10165 -0.590103 1.0647
                  CHANNELS 3 Zrotation Xrotation Yrotation
                  End Site
                  {
                    OFFSET -2.48547 -0.328903 0.83742
                  }
                }
              }
              JOINT rRing1
              {
                OFFSET -8.82822 0.546677 1.51678
                CHANNELS 3 Zrotation Xrotation Yrotation
                JOINT rRing2
                {
                  OFFSET -2.60934 -0.819778 -0.0198488
                  CHANNELS 3 Zrotation Xrotation Yrotation
                  End Site
                  {
                    OFFSET -2.33842 -0.294052 0.168128
                  }
                }
              }
              JOINT rPinky1
              {
                OFFSET -8.27202 -0.0477905 -0.4584
                CHANNELS 3 Zrotation Xrotation Yrotation
                JOINT rPinky2
                {
                  OFFSET -1.82734 -0.647385 -0.700984
                  CHANNELS 3 Zrotation Xrotation Yrotation
                  End Site
                  {
                    OFFSET -1.69225 -0.51767 -0.607171
                  }
                }
              }
            }
          }
        }
      }
      JOINT lCollar
      {
        OFFSET 2.68224 19.2634 -4.8768
        CHANNELS 3 Zrotation Xrotation Yrotation
        JOINT lShldr
        {
          OFFSET 8.77824 -1.95073 1.46304
          CHANNELS 3 Zrotation Xrotation Yrotation
          JOINT lForeArm
          {
            OFFSET 28.1742 -1.7115 0.48768
            CHANNELS 3 Zrotation Xrotation Yrotation
            JOINT lHand
            {
              OFFSET 22.5879 0.773209 7.07136
              CHANNELS 3 Zrotation Xrotation Yrotation
              JOINT lThumb1
              {
                OFFSET 1.2192 -0.487915 3.41376
                CHANNELS 3 Zrotation Xrotation Yrotation
                JOINT lThumb2
                {
                  OFFSET 3.37035 -0.52449 3.41376
                  CHANNELS 3 Zrotation Xrotation Yrotation
                  End Site
                  {
                    OFFSET 1.78271 -1.18214 1.43049
                  }
                }
              }
              JOINT lIndex1
              {
                OFFSET 7.75947 0.938293 5.60832
                CHANNELS 3 Zrotation Xrotation Yrotation
                JOINT lIndex2
                {
                  OFFSET 2.54057 -0.884171 1.56538
                  CHANNELS 3 Zrotation Xrotation Yrotation
                  End Site
                  {
                    OFFSET 1.62519 -0.234802 1.16502
                  }
                }
              }
              JOINT lMid1
              {
                OFFSET 8.24714 1.18213 3.41376
                CHANNELS 3 Zrotation Xrotation Yrotation
                JOINT lMid2
                {
                  OFFSET 3.10165 -0.590103 1.0647
                  CHANNELS 3 Zrotation Xrotation Yrotation
                  End Site
                  {
                    OFFSET 2.48547 -0.328903 0.83742
                  }
                }
              }
              JOINT lRing1
              {
                OFFSET 8.82822 0.546677 1.51678
                CHANNELS 3 Zrotation Xrotation Yrotation
                JOINT lRing2
                {
                  OFFSET 2.60934 -0.819778 -0.0198488
                  CHANNELS 3 Zrotation Xrotation Yrotation
                  End Site
                  {
                    OFFSET 2.33842 -0.294052 0.168128
                  }
                }
              }
              JOINT lPinky1
              {
                OFFSET 8.27202 -0.0477905 -0.4584
                CHANNELS 3 Zrotation Xrotation Yrotation
                JOINT lPinky2
                {
                  OFFSET 1.82734 -0.647385 -0.700984
                  CHANNELS 3 Zrotation Xrotation Yrotation
                  End Site
                  {
                    OFFSET 1.69225 -0.51767 -0.607171
                  }
                }
              }
            }
          }
        }
      }
    }
  }
  JOINT rButtock
  {
    OFFSET -8.77824 4.35084 1.2192
    CHANNELS 3 Zrotation Xrotation Yrotation
    JOINT rThigh
    {
      OFFSET 0 -1.70687 -2.19456
      CHANNELS 3 Zrotation Xrotation Yrotation
      JOINT rShin
      {
        OFFSET 0 -36.8199 0.73152
        CHANNELS 3 Zrotation Xrotation Yrotation
        JOINT rFoot
        {
          OFFSET 0.73152 -45.1104 -5.12064
          CHANNELS 3 Zrotation Xrotation Yrotation
          End Site
          {
            OFFSET -1.1221 -3.69964 12.103
          }
        }
      }
    }
  }
  JOINT lButtock
  {
    OFFSET 8.77824 4.35084 1.2192
    CHANNELS 3 Zrotation Xrotation Yrotation
    JOINT lThigh
    {
      OFFSET 0 -1.70687 -2.19456
      CHANNELS 3 Zrotation Xrotation Yrotation
      JOINT lShin
      {
        OFFSET 0 -36.8199 0.73152
        CHANNELS 3 Zrotation Xrotation Yrotation
        JOINT lFoot
        {
          OFFSET -0.73152 -45.1104 -5.12064
          CHANNELS 3 Zrotation Xrotation Yrotation
          End Site
          {
            OFFSET 1.1221 -3.69964 12.103
          }
        }
      }
    }
  }
}
MOTION
Frames:	4
Frame Time:	0.03333
11.327800020575523 70.39230346679688 69.45150012848899 -16.036400645971298 -24.70540076494217 12.573499828577042 12.02140063047409 6.916130259633064 11.048999950289726 -1.8798600509762764 -7.706020027399063 3.09728991240263 -2.282700017094612 14.510899633169174 1.1847000382840633 7.337109670042992 -26.402901113033295 4.127640053629875 0.0 0.0 0.0 0.0 0.0 0.0 -6.394884621840902e-13 0.0 0.0 78.8502985239029 48.65100145339966 -20.453500002622604 -28.386700451374054 -37.27440118789673 79.15880084037781 -0.11438199668191373 9.598950147628784 1.3619399908930063 3.913669388566632e-10 -6.087930159992538e-09 9.208633855450898e-10 6.861711199235287e-10 -1.0574581210676115e-08 1.5923262708383845e-09 3.913669388566632e-10 -6.087930159992538e-09 9.208633855450898e-10 7.7309102565050125 5.474880114197731 0.41731400415301323 3.913669388566632e-10 -6.087930159992538e-09 9.208633855450898e-10 2.905540131032467 0.9651830233633518 0.102901995414868 3.913669388566632e-10 -6.087930159992538e-09 9.208633855450898e-10 10.27859978377819 0.7318009994924068 0.025912300043273717 3.913669388566632e-10 -6.087930159992538e-09 9.208633855450898e-10 2.221670038998127 -0.733487019315362 -0.2089200052432716 -6.394884621840902e-13 0.0 0.0 -51.25330209732056 32.056201100349426 -29.088500440120697 28.41939926147461 -36.5215989947319 -77.88900017738342 0.8697589952498674 -25.496700704097748 3.8430801406502724 8.063949508141377e-10 -8.492406777804717e-10 1.4784973245696165e-09 1.3537970744437189e-09 -1.2994405551580712e-09 2.5784174795262516e-09 8.063949508141377e-10 -8.492406777804717e-10 1.4784973245696165e-09 -7.7309102565050125 5.474880114197731 -0.41731400415301323 8.063949508141377e-10 -8.492406777804717e-10 1.4784973245696165e-09 -2.905540131032467 0.9651830233633518 -0.102901995414868 8.063949508141377e-10 -8.492406777804717e-10 1.4784973245696165e-09 -10.27859978377819 0.7318009994924068 -0.025912300043273717 8.063949508141377e-10 -8.492406777804717e-10 1.4784973245696165e-09 -2.221670038998127 -0.733487019315362 0.2089200052432716 0.0 0.0 0.0 0.7356249913573265 -1.104269977658987 -5.019699856638908 -0.162634999724105 40.26340126991272 1.7378900572657585 -17.335500419139862 -20.309500247240067 -31.390500962734222 0.0 0.0 0.0 65.35329937934875 -57.532299757003784 54.56910252571106 2.0629300363361835 69.39509868621826 -2.198570016771555 0.7113879639655352 -1.3142499793320894 1.5410400554537773
11.329200020525604 70.25199890136719 69.48000012850389 -16.183699518442154 -25.051199197769165 12.818000614643097 12.039399594068527 6.889630034565926 11.30020022392273 -1.851309947669506 -7.798990085721016 3.168329894542694 -2.2044499218463898 14.373799860477448 1.1956300400197506 7.221619784832001 -26.238100826740265 4.114279970526695 0.0 0.0 0.0 0.0 0.0 0.0 -6.394884621840902e-13 0.0 -1.2789769243681803e-12 78.05780231952667 48.456798791885376 -19.67330038547516 -28.398700654506683 -37.04310089349747 78.7688022851944 -0.12138700461946428 9.885959923267365 1.4034699741750956 -3.895763711625477e-09 -1.0907115211011842e-08 6.767066906832042e-09 -6.6775385221262695e-09 -1.9281856111774687e-08 1.1729497373380582e-08 -3.895124223163293e-09 -1.0907115211011842e-08 6.767066906832042e-09 7.7309102565050125 5.474880114197731 0.41731400415301323 -3.895124223163293e-09 -1.0907115211011842e-08 6.767066906832042e-09 2.905540131032467 0.9651830233633518 0.102901995414868 -3.895124223163293e-09 -1.0907115211011842e-08 6.767066906832042e-09 10.27859978377819 0.7318009994924068 0.025912300043273717 -3.895763711625477e-09 -1.0907115211011842e-08 6.767066906832042e-09 2.221670038998127 -0.733487019315362 -0.2089200052432716 -6.394884621840902e-13 0.0 -1.2789769243681803e-12 -51.44999921321869 31.509998738765717 -29.50550079345703 28.414700031280518 -36.67689889669418 -78.14810156822205 0.8527899999171495 -25.26670128107071 3.803430050611496 2.18577156374522e-09 -9.096083886106499e-09 -1.3173462320992257e-10 3.761471134566818e-09 -1.5562591215712018e-08 -1.6498802324349526e-10 2.18577156374522e-09 -9.096083886106499e-09 -1.3173462320992257e-10 -7.7309102565050125 5.474880114197731 -0.41731400415301323 2.18577156374522e-09 -9.096083886106499e-09 -1.3173462320992257e-10 -2.905540131032467 0.9651830233633518 -0.102901995414868 2.18577156374522e-09 -9.096083886106499e-09 -1.3173462320992257e-10 -10.27859978377819 0.7318009994924068 -0.025912300043273717 2.18577156374522e-09 -9.096083886106499e-09 -1.3173462320992257e-10 -2.221670038998127 -0.733487019315362 0.2089200052432716 0.0 0.0 0.0 0.8968629688024521 -1.2215000297874212 -4.749229922890663 -0.16005400219000876 40.24059981107712 1.7535499669611454 -17.757599651813507 -20.622700452804565 -31.837898790836334 0.0 0.0 0.0 65.8528983592987 -57.63300061225891 54.707799553871155 2.1154599264264107 69.73329842090607 -2.2420100681483746 0.7745480351150036 -1.6845100745558739 1.7999399453401566
11.32680002041161 70.08260345458984 69.517500129994 -16.19179978966713 -25.350901186466217 12.923899590969086 11.91430002450943 6.993959918618202 11.519399732351303 -1.7908700555562973 -7.798340320587158 3.2347900047898293 -2.0952600426971912 14.254200160503387 1.1892100051045418 6.9873301684856415 -26.192599833011627 4.0455299243330956 0.0 0.0 0.0 0.0 0.0 0.0 0.0 0.0 -1.2789769243681803e-12 77.42859899997711 48.119500279426575 -19.03960034251213 -28.405100405216217 -36.90709948539734 78.53859901428223 -0.13092500274069607 10.265200138092041 1.4584600366652012 -5.033413685850974e-09 -1.0625740287650842e-08 8.148361985149677e-09 -8.62733884332556e-09 -1.891351075755665e-08 1.4123742175797815e-08 -5.033413685850974e-09 -1.0625740287650842e-08 8.148361985149677e-09 7.7309102565050125 5.474880114197731 0.41731400415301323 -5.033413685850974e-09 -1.0625740287650842e-08 8.149640962074045e-09 2.905540131032467 0.9651830233633518 0.102901995414868 -5.033413685850974e-09 -1.0625740287650842e-08 8.149640962074045e-09 10.27859978377819 0.7318009994924068 0.025912300043273717 -5.033413685850974e-09 -1.0625740287650842e-08 8.149640962074045e-09 2.221670038998127 -0.733487019315362 -0.2089200052432716 0.0 0.0 -1.2789769243681803e-12 -51.706799268722534 31.04999989271164 -29.85930025577545 28.413098752498627 -36.71450078487396 -78.21300029754639 0.8506390359252691 -25.2360999584198 3.7982000783085823 2.8834534759880626e-09 -1.0656435733835679e-08 2.212630079156952e-10 4.963709443472908e-09 -1.8243326849187724e-08 4.54036808150704e-10 2.8834534759880626e-09 -1.0656435733835679e-08 2.212630079156952e-10 -7.7309102565050125 5.474880114197731 -0.41731400415301323 2.8834534759880626e-09 -1.0656435733835679e-08 2.212630079156952e-10 -2.905540131032467 0.9651830233633518 -0.102901995414868 2.8834534759880626e-09 -1.0656435733835679e-08 2.212630079156952e-10 -10.27859978377819 0.7318009994924068 -0.025912300043273717 2.8834534759880626e-09 -1.0656435733835679e-08 2.212630079156952e-10 -2.221670038998127 -0.733487019315362 0.2089200052432716 0.0 0.0 0.0 0.7416380010545254 -1.5097599662840366 -4.469879865646362 -0.16635599895380437 40.58220058679581 1.7609099484980106 -17.785600572824478 -20.484600216150284 -31.9745010137558 0.0 0.0 0.0 66.31439924240112 -57.646400928497314 55.044899582862854 2.1780400536954403 70.11919856071472 -2.2946799360215664 0.78781901858747 -1.800360046327114 1.7863599210977554
11.328500020434149 69.9103012084961 69.60250013088807 -16.209600269794464 -25.526899695396423 12.971499413251877 11.77589938044548 7.0852696895599365 11.635599732398987 -1.718670018017292 -7.739050090312958 3.2724901288747787 -2.0032399892807007 14.123899787664413 1.175750009715557 6.762760207056999 -26.113600730895996 3.9637701585888863 0.0 0.0 0.0 0.0 0.0 0.0 0.0 0.0 -1.2789769243681803e-12 76.92430078983307 47.72179841995239 -18.529900163412094 -28.408699929714203 -36.82819962501526 78.40430080890656 -0.1383809989783913 10.546099841594696 1.4992899633944035 -4.794884489456308e-09 -7.99104782345239e-09 7.476899099856382e-09 -8.21614776214119e-09 -1.4339889276016038e-08 1.2957315220774035e-08 -4.794884489456308e-09 -7.99104782345239e-09 7.476899099856382e-09 7.7309102565050125 5.474880114197731 0.41731400415301323 -4.794884489456308e-09 -7.99104782345239e-09 7.476899099856382e-09 2.905540131032467 0.9651830233633518 0.102901995414868 -4.794884489456308e-09 -7.99104782345239e-09 7.476899099856382e-09 10.27859978377819 0.7318009994924068 0.025912300043273717 -4.794884489456308e-09 -7.99104782345239e-09 7.476899099856382e-09 2.221670038998127 -0.733487019315362 -0.2089200052432716 0.0 0.0 -1.2789769243681803e-12 -51.95329964160919 30.72249948978424 -30.1677006483078 28.4144988656044 -36.68410062789917 -78.16040217876434 0.860445024445653 -25.370599329471588 3.8213301077485085 2.985771629937517e-09 -9.403038347954862e-09 8.428457931586308e-10 5.135731839800428e-09 -1.6063950170064345e-08 1.5207035630737664e-09 2.985771629937517e-09 -9.403038347954862e-09 8.428457931586308e-10 -7.7309102565050125 5.474880114197731 -0.41731400415301323 2.985771629937517e-09 -9.403038347954862e-09 8.428457931586308e-10 -2.905540131032467 0.9651830233633518 -0.102901995414868 2.985771629937517e-09 -9.403038347954862e-09 8.428457931586308e-10 -10.27859978377819 0.7318009994924068 -0.025912300043273717 2.985771629937517e-09 -9.403038347954862e-09 8.428457931586308e-10 -2.221670038998127 -0.733487019315362 0.2089200052432716 0.0 0.0 0.0 0.4700380191206932 -1.7866499349474907 -4.422180131077766 -0.17445599776692688 40.993699729442596 1.767209954559803 -17.686200588941574 -20.339000523090363 -31.899798810482025 0.0 0.0 0.0 66.74480259418488 -57.715301513671875 55.448400378227234 2.2414399310946465 70.50179958343506 -2.3508499190211296 0.7790440041571856 -1.8241100013256073 1.684029959142208
